<?xml version="1.0" encoding="UTF-8" standalone="no"?>
<svg
   xmlns:dc="http://purl.org/dc/elements/1.1/"
   xmlns:cc="http://creativecommons.org/ns#"
   xmlns:rdf="http://www.w3.org/1999/02/22-rdf-syntax-ns#"
   xmlns:svg="http://www.w3.org/2000/svg"
   xmlns="http://www.w3.org/2000/svg"
   xmlns:sodipodi="http://sodipodi.sourceforge.net/DTD/sodipodi-0.dtd"
   xmlns:inkscape="http://www.inkscape.org/namespaces/inkscape"
   version="1.1"
   id="svg2"
   xml:space="preserve"
   width="380.21994"
   height="437.1055"
   viewBox="0 0 380.21994 437.10549"
   sodipodi:docname="directorios.svg"
   inkscape:version="1.0.2 (e86c870879, 2021-01-15)"><metadata
     id="metadata8"><rdf:RDF><cc:Work
         rdf:about=""><dc:format>image/svg+xml</dc:format><dc:type
           rdf:resource="http://purl.org/dc/dcmitype/StillImage" /><dc:title></dc:title></cc:Work></rdf:RDF></metadata><defs
     id="defs6"><clipPath
       clipPathUnits="userSpaceOnUse"
       id="clipPath30"><path
         d="M 0,0 H 345.56671 V 397.26894 H 0 Z"
         id="path28" /></clipPath></defs><sodipodi:namedview
     pagecolor="#ffffff"
     bordercolor="#666666"
     borderopacity="1"
     objecttolerance="10"
     gridtolerance="10"
     guidetolerance="10"
     inkscape:pageopacity="0"
     inkscape:pageshadow="2"
     inkscape:window-width="1360"
     inkscape:window-height="753"
     id="namedview4"
     showgrid="false"
     fit-margin-top="0"
     fit-margin-left="0"
     fit-margin-right="0"
     fit-margin-bottom="0"
     inkscape:zoom="0.51402201"
     inkscape:cx="190.10917"
     inkscape:cy="407.85762"
     inkscape:window-x="0"
     inkscape:window-y="15"
     inkscape:window-maximized="0"
     inkscape:current-layer="g10" /><g
     id="g10"
     inkscape:groupmode="layer"
     inkscape:label="TPL01"
     transform="matrix(1.3333333,0,0,-1.3333333,-206.74151,1046.9353)"><g
       id="g22"
       transform="matrix(0.82521,0,0,0.82521,155.056,457.372)"><g
         id="g24"><g
           id="g26" /><g
           id="g152"><g
             clip-path="url(#clipPath30)"
             id="g150"><g
               transform="matrix(1,0,0,-1,0,397.26894)"
               id="g148"><g
                 id="g146"><g
                   transform="scale(0.990462,1)"
                   id="g34"><path
                     d="m 7.3,10.609 c 0,-9.429 0,-9.429 5.896,-9.429 5.892,0 5.892,0 11.788,0 5.893,0 5.893,0 5.893,9.429 0,0 17.684,0 17.684,0 0,0 0,37.723 0,37.723 0,0 -41.261,0 -41.261,0 0,0 0,-28.293 0,-37.723 z"
                     style="fill:#e6e6e6;fill-opacity:1;fill-rule:evenodd;stroke:#000000;stroke-width:2.35757;stroke-linecap:butt;stroke-linejoin:miter;stroke-miterlimit:10;stroke-dasharray:none;stroke-opacity:1"
                     id="path32" /></g><g
                   transform="scale(0.990462,1)"
                   id="g38"><path
                     d="m 7.3,10.609 c 0,-9.429 0,-9.429 5.896,-9.429 5.892,0 5.892,0 11.788,0 5.893,0 5.893,0 5.893,9.429 0,0 17.684,0 17.684,0 0,0 0,37.723 0,37.723 0,0 -41.261,0 -41.261,0 0,0 0,-28.293 0,-37.723"
                     style="fill:none;stroke:#000000;stroke-width:1.17879;stroke-linecap:butt;stroke-linejoin:miter;stroke-miterlimit:10;stroke-dasharray:none;stroke-opacity:1"
                     id="path36" /></g><g
                   transform="scale(0.990462,1)"
                   id="g42"><path
                     d="M 7.3,48.332 1.408,15.324 h 41.257 l 5.896,33.008 z"
                     style="fill:#ffffff;fill-opacity:1;fill-rule:evenodd;stroke:#000000;stroke-width:2.35757;stroke-linecap:butt;stroke-linejoin:miter;stroke-miterlimit:10;stroke-dasharray:none;stroke-opacity:1"
                     id="path40" /></g><g
                   transform="scale(0.990462,1)"
                   id="g46"><path
                     d="M 7.3,48.332 1.408,15.324 h 41.257 l 5.896,33.008 z"
                     style="fill:none;stroke:#000000;stroke-width:1.17879;stroke-linecap:butt;stroke-linejoin:miter;stroke-miterlimit:10;stroke-dasharray:none;stroke-opacity:1"
                     id="path44" /></g><g
                   transform="scale(1,0.957293)"
                   id="g50"><path
                     d="m 72,62.677 h 34.773 l 11.59,9.703 v 38.802 H 72 Z"
                     style="fill:#ffffff;fill-opacity:1;fill-rule:evenodd;stroke:#000000;stroke-width:2.65111;stroke-linecap:butt;stroke-linejoin:miter;stroke-miterlimit:10;stroke-dasharray:none;stroke-opacity:1"
                     id="path48" /></g><g
                   transform="scale(1,0.957293)"
                   id="g54"><path
                     d="m 106.773,62.677 v 9.703 h 11.59"
                     style="fill:none;stroke:#000000;stroke-width:2.65111;stroke-linecap:butt;stroke-linejoin:miter;stroke-miterlimit:10;stroke-dasharray:none;stroke-opacity:1"
                     id="path52" /></g><path
                   d="M 24,48 V 312"
                   style="fill:none;stroke:#000000;stroke-width:3;stroke-linecap:butt;stroke-linejoin:miter;stroke-miterlimit:4;stroke-dasharray:none;stroke-opacity:1"
                   id="path56" /><path
                   d="M 24,84 H 72"
                   style="fill:none;stroke:#000000;stroke-width:3;stroke-linecap:butt;stroke-linejoin:miter;stroke-miterlimit:4;stroke-dasharray:none;stroke-opacity:1"
                   id="path58" /><g
                   transform="scale(0.990462,1)"
                   id="g62"><path
                     d="m 79.899,130.277 c 0,-9.429 0,-9.429 5.892,-9.429 5.896,0 5.896,0 11.788,0 5.896,0 5.896,0 5.896,9.429 0,0 17.681,0 17.681,0 0,0 0,37.723 0,37.723 0,0 -41.257,0 -41.257,0 0,0 0,-28.289 0,-37.723 z"
                     style="fill:#e6e6e6;fill-opacity:1;fill-rule:evenodd;stroke:#000000;stroke-width:2.35757;stroke-linecap:butt;stroke-linejoin:miter;stroke-miterlimit:10;stroke-dasharray:none;stroke-opacity:1"
                     id="path60" /></g><g
                   transform="scale(0.990462,1)"
                   id="g66"><path
                     d="m 79.899,130.277 c 0,-9.429 0,-9.429 5.892,-9.429 5.896,0 5.896,0 11.788,0 5.896,0 5.896,0 5.896,9.429 0,0 17.681,0 17.681,0 0,0 0,37.723 0,37.723 0,0 -41.257,0 -41.257,0 0,0 0,-28.289 0,-37.723"
                     style="fill:none;stroke:#000000;stroke-width:1.17879;stroke-linecap:butt;stroke-linejoin:miter;stroke-miterlimit:10;stroke-dasharray:none;stroke-opacity:1"
                     id="path64" /></g><g
                   transform="scale(0.990462,1)"
                   id="g70"><path
                     d="m 79.899,168 -5.896,-33.008 h 41.26 L 121.156,168 Z"
                     style="fill:#ffffff;fill-opacity:1;fill-rule:evenodd;stroke:#000000;stroke-width:2.35757;stroke-linecap:butt;stroke-linejoin:miter;stroke-miterlimit:10;stroke-dasharray:none;stroke-opacity:1"
                     id="path68" /></g><g
                   transform="scale(0.990462,1)"
                   id="g74"><path
                     d="m 79.899,168 -5.896,-33.008 h 41.26 L 121.156,168 Z"
                     style="fill:none;stroke:#000000;stroke-width:1.17879;stroke-linecap:butt;stroke-linejoin:miter;stroke-miterlimit:10;stroke-dasharray:none;stroke-opacity:1"
                     id="path72" /></g><path
                   d="M 24,145.5 H 72"
                   style="fill:none;stroke:#000000;stroke-width:3;stroke-linecap:butt;stroke-linejoin:miter;stroke-miterlimit:4;stroke-dasharray:none;stroke-opacity:1"
                   id="path76" /><path
                   d="M 96,169.5 V 264"
                   style="fill:none;stroke:#000000;stroke-width:3;stroke-linecap:butt;stroke-linejoin:miter;stroke-miterlimit:4;stroke-dasharray:none;stroke-opacity:1"
                   id="path78" /><path
                   d="m 96,204 h 48"
                   style="fill:none;stroke:#000000;stroke-width:3;stroke-linecap:butt;stroke-linejoin:miter;stroke-miterlimit:4;stroke-dasharray:none;stroke-opacity:1"
                   id="path80" /><g
                   transform="scale(1,0.957293)"
                   id="g84"><path
                     d="m 144,188.03 h 34.773 l 11.59,9.704 v 38.801 H 144 Z"
                     style="fill:#ffffff;fill-opacity:1;fill-rule:evenodd;stroke:#000000;stroke-width:2.65111;stroke-linecap:butt;stroke-linejoin:miter;stroke-miterlimit:10;stroke-dasharray:none;stroke-opacity:1"
                     id="path82" /></g><g
                   transform="scale(1,0.957293)"
                   id="g88"><path
                     d="m 178.773,188.03 v 9.704 h 11.59"
                     style="fill:none;stroke:#000000;stroke-width:2.65111;stroke-linecap:butt;stroke-linejoin:miter;stroke-miterlimit:10;stroke-dasharray:none;stroke-opacity:1"
                     id="path86" /></g><path
                   d="m 96,264 h 48"
                   style="fill:none;stroke:#000000;stroke-width:3;stroke-linecap:butt;stroke-linejoin:miter;stroke-miterlimit:4;stroke-dasharray:none;stroke-opacity:1"
                   id="path90" /><g
                   transform="scale(1,0.957293)"
                   id="g94"><path
                     d="m 144,250.707 h 34.773 l 11.59,9.703 v 38.802 H 144 Z"
                     style="fill:#ffffff;fill-opacity:1;fill-rule:evenodd;stroke:#000000;stroke-width:2.65111;stroke-linecap:butt;stroke-linejoin:miter;stroke-miterlimit:10;stroke-dasharray:none;stroke-opacity:1"
                     id="path92" /></g><g
                   transform="scale(1,0.957293)"
                   id="g98"><path
                     d="m 178.773,250.707 v 9.703 h 11.59"
                     style="fill:none;stroke:#000000;stroke-width:2.65111;stroke-linecap:butt;stroke-linejoin:miter;stroke-miterlimit:10;stroke-dasharray:none;stroke-opacity:1"
                     id="path96" /></g><g
                   transform="scale(0.990462,1)"
                   id="g102"><path
                     d="m 78.491,297.102 c 0,-9.434 0,-9.434 5.892,-9.434 5.896,0 5.896,0 11.788,0 5.896,0 5.896,0 5.896,9.434 0,0 17.681,0 17.681,0 0,0 0,37.718 0,37.718 0,0 -41.257,0 -41.257,0 0,0 0,-28.289 0,-37.718 z"
                     style="fill:#e6e6e6;fill-opacity:1;fill-rule:evenodd;stroke:#000000;stroke-width:2.35757;stroke-linecap:butt;stroke-linejoin:miter;stroke-miterlimit:10;stroke-dasharray:none;stroke-opacity:1"
                     id="path100" /></g><g
                   transform="scale(0.990462,1)"
                   id="g106"><path
                     d="m 78.491,297.102 c 0,-9.434 0,-9.434 5.892,-9.434 5.896,0 5.896,0 11.788,0 5.896,0 5.896,0 5.896,9.434 0,0 17.681,0 17.681,0 0,0 0,37.718 0,37.718 0,0 -41.257,0 -41.257,0 0,0 0,-28.289 0,-37.718"
                     style="fill:none;stroke:#000000;stroke-width:1.17879;stroke-linecap:butt;stroke-linejoin:miter;stroke-miterlimit:10;stroke-dasharray:none;stroke-opacity:1"
                     id="path104" /></g><g
                   transform="scale(0.990462,1)"
                   id="g110"><path
                     d="m 78.491,334.82 -5.896,-33.004 h 41.261 l 5.892,33.004 z"
                     style="fill:#ffffff;fill-opacity:1;fill-rule:evenodd;stroke:#000000;stroke-width:2.35757;stroke-linecap:butt;stroke-linejoin:miter;stroke-miterlimit:10;stroke-dasharray:none;stroke-opacity:1"
                     id="path108" /></g><g
                   transform="scale(0.990462,1)"
                   id="g114"><path
                     d="m 78.491,334.82 -5.896,-33.004 h 41.261 l 5.892,33.004 z"
                     style="fill:none;stroke:#000000;stroke-width:1.17879;stroke-linecap:butt;stroke-linejoin:miter;stroke-miterlimit:10;stroke-dasharray:none;stroke-opacity:1"
                     id="path112" /></g><path
                   d="M 24,312 H 72"
                   style="fill:none;stroke:#000000;stroke-width:3;stroke-linecap:butt;stroke-linejoin:miter;stroke-miterlimit:4;stroke-dasharray:none;stroke-opacity:1"
                   id="path116" /><path
                   d="m 96,336 v 36"
                   style="fill:none;stroke:#000000;stroke-width:3;stroke-linecap:butt;stroke-linejoin:miter;stroke-miterlimit:4;stroke-dasharray:none;stroke-opacity:1"
                   id="path118" /><path
                   d="m 96,372 h 48"
                   style="fill:none;stroke:#000000;stroke-width:3;stroke-linecap:butt;stroke-linejoin:miter;stroke-miterlimit:4;stroke-dasharray:none;stroke-opacity:1"
                   id="path120" /><g
                   transform="scale(1,0.957293)"
                   id="g124"><path
                     d="m 145.637,365.161 h 34.773 l 11.59,9.7 v 38.805 h -46.363 z"
                     style="fill:#ffffff;fill-opacity:1;fill-rule:evenodd;stroke:#000000;stroke-width:2.65111;stroke-linecap:butt;stroke-linejoin:miter;stroke-miterlimit:10;stroke-dasharray:none;stroke-opacity:1"
                     id="path122" /></g><g
                   transform="scale(1,0.957293)"
                   id="g128"><path
                     d="m 180.41,365.161 v 9.7 H 192"
                     style="fill:none;stroke:#000000;stroke-width:2.65111;stroke-linecap:butt;stroke-linejoin:miter;stroke-miterlimit:10;stroke-dasharray:none;stroke-opacity:1"
                     id="path126" /></g><text
                   transform="translate(130.67999,95.760002)"
                   style="font-variant:normal;font-weight:bold;font-size:24px;font-family:'DejaVu Sans Mono';-inkscape-font-specification:DejaVuSansMono-Bold;writing-mode:lr-tb;fill:#000000;fill-opacity:1;fill-rule:nonzero;stroke:none"
                   id="text144"><tspan
                     x="0 14.449219 28.898438 43.347656 57.796875 72.246094 86.695312 101.14453 115.59375"
                     y="0"
                     sodipodi:role="line"
                     id="tspan130">notas.tsv</tspan><tspan
                     x="0 14.449219 28.898438 43.347656 57.796875 72.246094 86.695312 101.14453 115.59375"
                     y="60"
                     sodipodi:role="line"
                     id="tspan132">parciales</tspan><tspan
                     x="-72 -57.550781"
                     y="-60"
                     sodipodi:role="line"
                     id="tspan134">ic</tspan><tspan
                     x="72 86.449219 100.89844 115.34766 129.79688 144.24609"
                     y="120"
                     sodipodi:role="line"
                     id="tspan136">p1.pdf</tspan><tspan
                     x="72 86.449219 100.89844 115.34766 129.79688 144.24609"
                     y="180.00002"
                     sodipodi:role="line"
                     id="tspan138">p2.pdf</tspan><tspan
                     x="0 14.449219 28.898438 43.347656 57.796875 72.246094 86.695312 101.14453"
                     y="228.00002"
                     sodipodi:role="line"
                     id="tspan140">imagenes</tspan><tspan
                     x="72 86.449219 100.89844 115.34766 129.79688 144.24609 158.69531 173.14453 187.59375 202.04297"
                     y="288.00003"
                     sodipodi:role="line"
                     id="tspan142">gatito.jpg</tspan></text></g></g></g></g></g></g></g></svg>
