<?xml version="1.0" encoding="UTF-8" standalone="no"?>
<svg
   xmlns:dc="http://purl.org/dc/elements/1.1/"
   xmlns:cc="http://creativecommons.org/ns#"
   xmlns:rdf="http://www.w3.org/1999/02/22-rdf-syntax-ns#"
   xmlns:svg="http://www.w3.org/2000/svg"
   xmlns="http://www.w3.org/2000/svg"
   id="svg321"
   version="1.1"
   viewBox="238 217 364 261"
   height="14cm"
   width="19cm">
  <metadata
     id="metadata327">
    <rdf:RDF>
      <cc:Work
         rdf:about="">
        <dc:format>image/svg+xml</dc:format>
        <dc:type
           rdf:resource="http://purl.org/dc/dcmitype/StillImage" />
        <dc:title></dc:title>
      </cc:Work>
    </rdf:RDF>
  </metadata>
  <defs
     id="defs325" />
  <g
     id="Background">
    <g
       id="g8">
      <path
         fill-rule="evenodd"
         id="path2"
         d="M 262.026 242.553 C 253.846,242.258 237.982,248.454 240.213,261.729 C 242.444,275.005 253.102,277.955 257.564,274.12 C 262.026,270.285 250.624,292.706 272.437,298.607 C 294.249,304.507 305.404,295.067 302.181,288.281 C 298.959,281.496 321.268,304.212 331.679,291.231 C 342.089,278.25 321.02,265.86 325.482,267.63 C 329.944,269.4 343.577,267.04 339.115,244.913 C 334.653,222.787 294.497,239.898 298.959,236.653 C 303.421,233.408 292.266,217.181 278.386,220.427 C 264.505,223.672 263.52,229.561 262.033,242.542 L 262.026,242.553z"
         style="fill: #ffffff; fill-opacity: 1; stroke-opacity: 1; stroke-width: 2; stroke: #000000" />
      <text
         id="text6"
         y="266.384"
         x="293.61"
         style="fill: #000000; fill-opacity: 1; stroke: none;text-anchor:middle;font-family:sans-serif;font-style:normal;font-weight:normal"
         font-size="12.7998">
        <tspan
           id="tspan4"
           y="266.384"
           x="293.61" />
      </text>
    </g>
    <g
       id="g30">
      <rect
         id="rect10"
         ry="0"
         rx="0"
         height="40"
         width="40"
         y="340"
         x="400"
         style="fill: #9f9f9f; fill-opacity: 1; stroke-opacity: 1; stroke-width: 2; stroke: #000000" />
      <rect
         id="rect12"
         ry="0"
         rx="0"
         height="40"
         width="40"
         y="340"
         x="400"
         style="fill: none; stroke-opacity: 1; stroke-width: 2; stroke: #000000" />
      <path
         id="path14"
         d="M 422.475 346.475 C 422.475,366.475 426.475,362.475 406.475,362.475"
         style="fill: none; stroke-opacity: 1; stroke-width: 2.6; stroke: #ffffff" />
      <path
         id="path16"
         d="M 422.475 346.475 C 422.475,366.475 426.475,362.475 406.475,362.475"
         style="fill: none; stroke-opacity: 1; stroke-width: 1.6; stroke: #000000" />
      <polygon
         fill-rule="evenodd"
         id="polygon18"
         points="424.4,349.6 422.4,345.6 420.4,349.6 "
         style="fill: #000000; fill-opacity: 1; stroke-opacity: 1; stroke-width: 2; stroke: #000000" />
      <polygon
         fill-rule="evenodd"
         id="polygon20"
         points="409.6,360.4 405.6,362.4 409.6,364.4 "
         style="fill: #000000; fill-opacity: 1; stroke-opacity: 1; stroke-width: 2; stroke: #000000" />
      <path
         id="path22"
         d="M 434.343 357.726 C 414.343,357.726 418.343,353.726 418.343,373.726"
         style="fill: none; stroke-opacity: 1; stroke-width: 2.6; stroke: #ffffff" />
      <path
         id="path24"
         d="M 434.343 357.726 C 414.343,357.726 418.343,353.726 418.343,373.726"
         style="fill: none; stroke-opacity: 1; stroke-width: 1.6; stroke: #000000" />
      <polygon
         fill-rule="evenodd"
         id="polygon26"
         points="430.8,359.6 434.8,357.6 430.8,355.6 "
         style="fill: #000000; fill-opacity: 1; stroke-opacity: 1; stroke-width: 2; stroke: #000000" />
      <polygon
         fill-rule="evenodd"
         id="polygon28"
         points="416,370.4 418,374.4 420,370.4 "
         style="fill: #000000; fill-opacity: 1; stroke-opacity: 1; stroke-width: 2; stroke: #000000" />
    </g>
    <g
       id="g52">
      <rect
         id="rect32"
         ry="0"
         rx="0"
         height="40"
         width="40"
         y="240"
         x="400"
         style="fill: #9f9f9f; fill-opacity: 1; stroke-opacity: 1; stroke-width: 2; stroke: #000000" />
      <rect
         id="rect34"
         ry="0"
         rx="0"
         height="40"
         width="40"
         y="240"
         x="400"
         style="fill: none; stroke-opacity: 1; stroke-width: 2; stroke: #000000" />
      <path
         id="path36"
         d="M 422.475 246.475 C 422.475,266.475 426.475,262.475 406.475,262.475"
         style="fill: none; stroke-opacity: 1; stroke-width: 2.6; stroke: #ffffff" />
      <path
         id="path38"
         d="M 422.475 246.475 C 422.475,266.475 426.475,262.475 406.475,262.475"
         style="fill: none; stroke-opacity: 1; stroke-width: 1.6; stroke: #000000" />
      <polygon
         fill-rule="evenodd"
         id="polygon40"
         points="424.4,249.6 422.4,245.6 420.4,249.6 "
         style="fill: #000000; fill-opacity: 1; stroke-opacity: 1; stroke-width: 2; stroke: #000000" />
      <polygon
         fill-rule="evenodd"
         id="polygon42"
         points="409.6,260.4 405.6,262.4 409.6,264.4 "
         style="fill: #000000; fill-opacity: 1; stroke-opacity: 1; stroke-width: 2; stroke: #000000" />
      <path
         id="path44"
         d="M 434.343 257.726 C 414.343,257.726 418.343,253.726 418.343,273.726"
         style="fill: none; stroke-opacity: 1; stroke-width: 2.6; stroke: #ffffff" />
      <path
         id="path46"
         d="M 434.343 257.726 C 414.343,257.726 418.343,253.726 418.343,273.726"
         style="fill: none; stroke-opacity: 1; stroke-width: 1.6; stroke: #000000" />
      <polygon
         fill-rule="evenodd"
         id="polygon48"
         points="430.8,259.6 434.8,257.6 430.8,255.6 "
         style="fill: #000000; fill-opacity: 1; stroke-opacity: 1; stroke-width: 2; stroke: #000000" />
      <polygon
         fill-rule="evenodd"
         id="polygon50"
         points="416,270.4 418,274.4 420,270.4 "
         style="fill: #000000; fill-opacity: 1; stroke-opacity: 1; stroke-width: 2; stroke: #000000" />
    </g>
    <g
       id="g70">
      <rect
         id="rect54"
         ry="0"
         rx="0"
         height="30.2542"
         width="40.339"
         y="240"
         x="560"
         style="fill: #b3b3b3; fill-opacity: 1; stroke-opacity: 1; stroke-width: 1; stroke: #000000" />
      <rect
         id="rect56"
         ry="0"
         rx="0"
         height="20.8418"
         width="31.5989"
         y="244.37"
         x="564.37"
         style="fill: #000000; fill-opacity: 1; stroke: none" />
      <polygon
         fill-rule="evenodd"
         id="polygon58"
         points="565.463,270.254 586.22,270.254 586.22,274.96 566.555,274.96 "
         style="fill: #b3b3b3; fill-opacity: 1; stroke-opacity: 1; stroke-width: 1; stroke: #000000" />
      <polygon
         fill-rule="evenodd"
         id="polygon60"
         points="586.22,270.254 594.876,270.254 593.784,274.96 586.22,274.96 "
         style="fill: #b3b3b3; fill-opacity: 1; stroke-opacity: 1; stroke-width: 1; stroke: #000000" />
      <rect
         id="rect62"
         ry="0"
         rx="0"
         height="1.88249"
         width="1.88249"
         y="271.666"
         x="587.632"
         style="fill: #ffffff; fill-opacity: 1; stroke-opacity: 1; stroke-width: 0.5; stroke: #000000" />
      <polygon
         fill-rule="evenodd"
         id="polygon64"
         points="576.136,274.96 584.203,274.96 584.203,277.314 588.237,277.314 588.237,279.667 572.102,279.667 572.102,277.314 576.136,277.314 "
         style="fill: #b3b3b3; fill-opacity: 1; stroke-opacity: 1; stroke-width: 1; stroke: #000000" />
      <text
         id="text68"
         y="293.011"
         x="580.169"
         style="fill: #000000; fill-opacity: 1; stroke: none;text-anchor:middle;font-family:mononoki;font-style:normal;font-weight:normal"
         font-size="12.8">
        <tspan
           id="tspan66"
           y="293.011"
           x="580.169">E</tspan>
      </text>
    </g>
    <g
       id="g88">
      <rect
         id="rect72"
         ry="0"
         rx="0"
         height="30.2542"
         width="40.339"
         y="420"
         x="480"
         style="fill: #b3b3b3; fill-opacity: 1; stroke-opacity: 1; stroke-width: 1; stroke: #000000" />
      <rect
         id="rect74"
         ry="0"
         rx="0"
         height="20.8418"
         width="31.5989"
         y="424.37"
         x="484.37"
         style="fill: #000000; fill-opacity: 1; stroke: none" />
      <polygon
         fill-rule="evenodd"
         id="polygon76"
         points="485.463,450.254 506.22,450.254 506.22,454.96 486.555,454.96 "
         style="fill: #b3b3b3; fill-opacity: 1; stroke-opacity: 1; stroke-width: 1; stroke: #000000" />
      <polygon
         fill-rule="evenodd"
         id="polygon78"
         points="506.22,450.254 514.876,450.254 513.784,454.96 506.22,454.96 "
         style="fill: #b3b3b3; fill-opacity: 1; stroke-opacity: 1; stroke-width: 1; stroke: #000000" />
      <rect
         id="rect80"
         ry="0"
         rx="0"
         height="1.88249"
         width="1.88249"
         y="451.666"
         x="507.632"
         style="fill: #ffffff; fill-opacity: 1; stroke-opacity: 1; stroke-width: 0.5; stroke: #000000" />
      <polygon
         fill-rule="evenodd"
         id="polygon82"
         points="496.136,454.96 504.203,454.96 504.203,457.314 508.237,457.314 508.237,459.667 492.102,459.667 492.102,457.314 496.136,457.314 "
         style="fill: #b3b3b3; fill-opacity: 1; stroke-opacity: 1; stroke-width: 1; stroke: #000000" />
      <text
         id="text86"
         y="473.011"
         x="500.169"
         style="fill: #000000; fill-opacity: 1; stroke: none;text-anchor:middle;font-family:mononoki;font-style:normal;font-weight:normal"
         font-size="12.8">
        <tspan
           id="tspan84"
           y="473.011"
           x="500.169">C</tspan>
      </text>
    </g>
    <g
       id="g106">
      <rect
         id="rect90"
         ry="0"
         rx="0"
         height="30.2542"
         width="40.339"
         y="340"
         x="560"
         style="fill: #b3b3b3; fill-opacity: 1; stroke-opacity: 1; stroke-width: 1; stroke: #000000" />
      <rect
         id="rect92"
         ry="0"
         rx="0"
         height="20.8418"
         width="31.5989"
         y="344.37"
         x="564.37"
         style="fill: #000000; fill-opacity: 1; stroke: none" />
      <polygon
         fill-rule="evenodd"
         id="polygon94"
         points="565.463,370.254 586.22,370.254 586.22,374.96 566.555,374.96 "
         style="fill: #b3b3b3; fill-opacity: 1; stroke-opacity: 1; stroke-width: 1; stroke: #000000" />
      <polygon
         fill-rule="evenodd"
         id="polygon96"
         points="586.22,370.254 594.876,370.254 593.784,374.96 586.22,374.96 "
         style="fill: #b3b3b3; fill-opacity: 1; stroke-opacity: 1; stroke-width: 1; stroke: #000000" />
      <rect
         id="rect98"
         ry="0"
         rx="0"
         height="1.88249"
         width="1.88249"
         y="371.666"
         x="587.632"
         style="fill: #ffffff; fill-opacity: 1; stroke-opacity: 1; stroke-width: 0.5; stroke: #000000" />
      <polygon
         fill-rule="evenodd"
         id="polygon100"
         points="576.136,374.96 584.203,374.96 584.203,377.314 588.237,377.314 588.237,379.667 572.102,379.667 572.102,377.314 576.136,377.314 "
         style="fill: #b3b3b3; fill-opacity: 1; stroke-opacity: 1; stroke-width: 1; stroke: #000000" />
      <text
         id="text104"
         y="393.011"
         x="580.169"
         style="fill: #000000; fill-opacity: 1; stroke: none;text-anchor:middle;font-family:mononoki;font-style:normal;font-weight:normal"
         font-size="12.8">
        <tspan
           id="tspan102"
           y="393.011"
           x="580.169">D</tspan>
      </text>
    </g>
    <g
       id="g124">
      <rect
         id="rect108"
         ry="0"
         rx="0"
         height="30.2542"
         width="40.339"
         y="420"
         x="320"
         style="fill: #b3b3b3; fill-opacity: 1; stroke-opacity: 1; stroke-width: 1; stroke: #000000" />
      <rect
         id="rect110"
         ry="0"
         rx="0"
         height="20.8418"
         width="31.5989"
         y="424.37"
         x="324.37"
         style="fill: #000000; fill-opacity: 1; stroke: none" />
      <polygon
         fill-rule="evenodd"
         id="polygon112"
         points="325.463,450.254 346.22,450.254 346.22,454.96 326.555,454.96 "
         style="fill: #b3b3b3; fill-opacity: 1; stroke-opacity: 1; stroke-width: 1; stroke: #000000" />
      <polygon
         fill-rule="evenodd"
         id="polygon114"
         points="346.22,450.254 354.876,450.254 353.784,454.96 346.22,454.96 "
         style="fill: #b3b3b3; fill-opacity: 1; stroke-opacity: 1; stroke-width: 1; stroke: #000000" />
      <rect
         id="rect116"
         ry="0"
         rx="0"
         height="1.88249"
         width="1.88249"
         y="451.666"
         x="347.632"
         style="fill: #ffffff; fill-opacity: 1; stroke-opacity: 1; stroke-width: 0.5; stroke: #000000" />
      <polygon
         fill-rule="evenodd"
         id="polygon118"
         points="336.136,454.96 344.203,454.96 344.203,457.314 348.237,457.314 348.237,459.667 332.102,459.667 332.102,457.314 336.136,457.314 "
         style="fill: #b3b3b3; fill-opacity: 1; stroke-opacity: 1; stroke-width: 1; stroke: #000000" />
      <text
         id="text122"
         y="473.011"
         x="340.169"
         style="fill: #000000; fill-opacity: 1; stroke: none;text-anchor:middle;font-family:mononoki;font-style:normal;font-weight:normal"
         font-size="12.8">
        <tspan
           id="tspan120"
           y="473.011"
           x="340.169">B</tspan>
      </text>
    </g>
    <g
       id="g142">
      <rect
         id="rect126"
         ry="0"
         rx="0"
         height="30.2542"
         width="40.339"
         y="340"
         x="240"
         style="fill: #b3b3b3; fill-opacity: 1; stroke-opacity: 1; stroke-width: 1; stroke: #000000" />
      <rect
         id="rect128"
         ry="0"
         rx="0"
         height="20.8418"
         width="31.5989"
         y="344.37"
         x="244.37"
         style="fill: #000000; fill-opacity: 1; stroke: none" />
      <polygon
         fill-rule="evenodd"
         id="polygon130"
         points="245.463,370.254 266.22,370.254 266.22,374.96 246.555,374.96 "
         style="fill: #b3b3b3; fill-opacity: 1; stroke-opacity: 1; stroke-width: 1; stroke: #000000" />
      <polygon
         fill-rule="evenodd"
         id="polygon132"
         points="266.22,370.254 274.876,370.254 273.784,374.96 266.22,374.96 "
         style="fill: #b3b3b3; fill-opacity: 1; stroke-opacity: 1; stroke-width: 1; stroke: #000000" />
      <rect
         id="rect134"
         ry="0"
         rx="0"
         height="1.88249"
         width="1.88249"
         y="371.666"
         x="267.632"
         style="fill: #ffffff; fill-opacity: 1; stroke-opacity: 1; stroke-width: 0.5; stroke: #000000" />
      <polygon
         fill-rule="evenodd"
         id="polygon136"
         points="256.136,374.96 264.203,374.96 264.203,377.314 268.237,377.314 268.237,379.667 252.102,379.667 252.102,377.314 256.136,377.314 "
         style="fill: #b3b3b3; fill-opacity: 1; stroke-opacity: 1; stroke-width: 1; stroke: #000000" />
      <text
         id="text140"
         y="393.011"
         x="260.169"
         style="fill: #000000; fill-opacity: 1; stroke: none;text-anchor:middle;font-family:mononoki;font-style:normal;font-weight:normal"
         font-size="12.8">
        <tspan
           id="tspan138"
           y="393.011"
           x="260.169">A</tspan>
      </text>
    </g>
    <line
       id="line144"
       y2="359.956"
       x2="319.01"
       y1="359.876"
       x1="280.626"
       style="fill: none; stroke-opacity: 1; stroke-width: 2; stroke: #000000" />
    <line
       id="line146"
       y2="380"
       x2="340"
       y1="419.616"
       x1="340.112"
       style="fill: none; stroke-opacity: 1; stroke-width: 2; stroke: #000000" />
    <line
       id="line148"
       y2="360"
       x2="400"
       y1="360"
       x1="360.992"
       style="fill: none; stroke-opacity: 1; stroke-width: 2; stroke: #000000" />
    <line
       id="line150"
       y2="260"
       x2="479.008"
       y1="260"
       x1="440"
       style="fill: none; stroke-opacity: 1; stroke-width: 2; stroke: #000000" />
    <line
       id="line152"
       y2="259.888"
       x2="560.426"
       y1="260"
       x1="520"
       style="fill: none; stroke-opacity: 1; stroke-width: 2; stroke: #000000" />
    <line
       id="line154"
       y2="360"
       x2="479.008"
       y1="360"
       x1="440"
       style="fill: none; stroke-opacity: 1; stroke-width: 2; stroke: #000000" />
    <line
       id="line156"
       y2="359.876"
       x2="559.538"
       y1="359.956"
       x1="520.992"
       style="fill: none; stroke-opacity: 1; stroke-width: 2; stroke: #000000" />
    <line
       id="line158"
       y2="380.992"
       x2="500.044"
       y1="419.549"
       x1="500.126"
       style="fill: none; stroke-opacity: 1; stroke-width: 2; stroke: #000000" />
    <line
       id="line160"
       y2="260.321"
       x2="339.702"
       y1="260"
       x1="400"
       style="fill: none; stroke-opacity: 1; stroke-width: 2; stroke: #000000" />
    <text
       id="text164"
       y="264.575"
       x="290.859"
       style="fill: #000000; fill-opacity: 1; stroke: none;text-anchor:middle;font-family:mononoki;font-style:normal;font-weight:normal"
       font-size="12.8">
      <tspan
         id="tspan162"
         y="264.575"
         x="290.859">Internet</tspan>
    </text>
    <text
       id="text168"
       y="236.85"
       x="420"
       style="fill: #000000; fill-opacity: 1; stroke: none;text-anchor:middle;font-family:mononoki;font-style:italic;font-weight:700"
       font-size="12.8">
      <tspan
         id="tspan166"
         y="236.85"
         x="420">R3</tspan>
    </text>
    <text
       id="text172"
       y="391.25"
       x="420"
       style="fill: #000000; fill-opacity: 1; stroke: none;text-anchor:middle;font-family:mononoki;font-style:italic;font-weight:700"
       font-size="12.8">
      <tspan
         id="tspan170"
         y="391.25"
         x="420">R2</tspan>
    </text>
    <text
       id="text176"
       y="257.5"
       x="400"
       style="fill: #000000; fill-opacity: 1; stroke: none;text-anchor:end;font-family:mononoki;font-style:normal;font-weight:normal"
       font-size="10.16">
      <tspan
         id="tspan174"
         y="257.5"
         x="400">I1</tspan>
    </text>
    <text
       id="text180"
       y="357.5"
       x="400"
       style="fill: #000000; fill-opacity: 1; stroke: none;text-anchor:end;font-family:mononoki;font-style:normal;font-weight:normal"
       font-size="10.16">
      <tspan
         id="tspan178"
         y="357.5"
         x="400">I1</tspan>
    </text>
    <text
       id="text184"
       y="357.5"
       x="440"
       style="fill: #000000; fill-opacity: 1; stroke: none;text-anchor:start;font-family:mononoki;font-style:normal;font-weight:normal"
       font-size="10.16">
      <tspan
         id="tspan182"
         y="357.5"
         x="440">I2</tspan>
    </text>
    <text
       id="text188"
       y="257.5"
       x="440"
       style="fill: #000000; fill-opacity: 1; stroke: none;text-anchor:start;font-family:mononoki;font-style:normal;font-weight:normal"
       font-size="10.16">
      <tspan
         id="tspan186"
         y="257.5"
         x="440">I2</tspan>
    </text>
    <text
       id="text192"
       y="288.95"
       x="420"
       style="fill: #000000; fill-opacity: 1; stroke: none;text-anchor:start;font-family:mononoki;font-style:normal;font-weight:normal"
       font-size="10.16">
      <tspan
         id="tspan190"
         y="288.95"
         x="420">I3</tspan>
    </text>
    <text
       id="text196"
       y="337.5"
       x="420"
       style="fill: #000000; fill-opacity: 1; stroke: none;text-anchor:end;font-family:mononoki;font-style:normal;font-weight:normal"
       font-size="10.16">
      <tspan
         id="tspan194"
         y="337.5"
         x="420">I3</tspan>
    </text>
    <line
       id="line198"
       y2="340"
       x2="420"
       y1="280"
       x1="420"
       style="fill: none; stroke-opacity: 1; stroke-width: 2; stroke: #000000" />
    <g
       id="g220">
      <rect
         id="rect200"
         ry="0"
         rx="0"
         height="40"
         width="40"
         y="240"
         x="480"
         style="fill: #9f9f9f; fill-opacity: 1; stroke-opacity: 1; stroke-width: 2; stroke: #000000" />
      <rect
         id="rect202"
         ry="0"
         rx="0"
         height="40"
         width="40"
         y="240"
         x="480"
         style="fill: none; stroke-opacity: 1; stroke-width: 2; stroke: #000000" />
      <path
         id="path204"
         d="M 502.475 246.475 C 502.475,266.475 506.475,262.475 486.475,262.475"
         style="fill: none; stroke-opacity: 1; stroke-width: 2.6; stroke: #ffffff" />
      <path
         id="path206"
         d="M 502.475 246.475 C 502.475,266.475 506.475,262.475 486.475,262.475"
         style="fill: none; stroke-opacity: 1; stroke-width: 1.6; stroke: #000000" />
      <polygon
         fill-rule="evenodd"
         id="polygon208"
         points="504.4,249.6 502.4,245.6 500.4,249.6 "
         style="fill: #000000; fill-opacity: 1; stroke-opacity: 1; stroke-width: 2; stroke: #000000" />
      <polygon
         fill-rule="evenodd"
         id="polygon210"
         points="489.6,260.4 485.6,262.4 489.6,264.4 "
         style="fill: #000000; fill-opacity: 1; stroke-opacity: 1; stroke-width: 2; stroke: #000000" />
      <path
         id="path212"
         d="M 514.343 257.726 C 494.343,257.726 498.343,253.726 498.343,273.726"
         style="fill: none; stroke-opacity: 1; stroke-width: 2.6; stroke: #ffffff" />
      <path
         id="path214"
         d="M 514.343 257.726 C 494.343,257.726 498.343,253.726 498.343,273.726"
         style="fill: none; stroke-opacity: 1; stroke-width: 1.6; stroke: #000000" />
      <polygon
         fill-rule="evenodd"
         id="polygon216"
         points="510.8,259.6 514.8,257.6 510.8,255.6 "
         style="fill: #000000; fill-opacity: 1; stroke-opacity: 1; stroke-width: 2; stroke: #000000" />
      <polygon
         fill-rule="evenodd"
         id="polygon218"
         points="496,270.4 498,274.4 500,270.4 "
         style="fill: #000000; fill-opacity: 1; stroke-opacity: 1; stroke-width: 2; stroke: #000000" />
    </g>
    <text
       id="text224"
       y="257.5"
       x="480"
       style="fill: #000000; fill-opacity: 1; stroke: none;text-anchor:end;font-family:mononoki;font-style:normal;font-weight:normal"
       font-size="10.16">
      <tspan
         id="tspan222"
         y="257.5"
         x="480">I1</tspan>
    </text>
    <text
       id="text228"
       y="257.5"
       x="520"
       style="fill: #000000; fill-opacity: 1; stroke: none;text-anchor:start;font-family:mononoki;font-style:normal;font-weight:normal"
       font-size="10.16">
      <tspan
         id="tspan226"
         y="257.5"
         x="520">I2</tspan>
    </text>
    <g
       id="g250">
      <rect
         id="rect230"
         ry="0"
         rx="0"
         height="40"
         width="40"
         y="340"
         x="480"
         style="fill: #9f9f9f; fill-opacity: 1; stroke-opacity: 1; stroke-width: 2; stroke: #000000" />
      <rect
         id="rect232"
         ry="0"
         rx="0"
         height="40"
         width="40"
         y="340"
         x="480"
         style="fill: none; stroke-opacity: 1; stroke-width: 2; stroke: #000000" />
      <path
         id="path234"
         d="M 502.475 346.475 C 502.475,366.475 506.475,362.475 486.475,362.475"
         style="fill: none; stroke-opacity: 1; stroke-width: 2.6; stroke: #ffffff" />
      <path
         id="path236"
         d="M 502.475 346.475 C 502.475,366.475 506.475,362.475 486.475,362.475"
         style="fill: none; stroke-opacity: 1; stroke-width: 1.6; stroke: #000000" />
      <polygon
         fill-rule="evenodd"
         id="polygon238"
         points="504.4,349.6 502.4,345.6 500.4,349.6 "
         style="fill: #000000; fill-opacity: 1; stroke-opacity: 1; stroke-width: 2; stroke: #000000" />
      <polygon
         fill-rule="evenodd"
         id="polygon240"
         points="489.6,360.4 485.6,362.4 489.6,364.4 "
         style="fill: #000000; fill-opacity: 1; stroke-opacity: 1; stroke-width: 2; stroke: #000000" />
      <path
         id="path242"
         d="M 514.343 357.726 C 494.343,357.726 498.343,353.726 498.343,373.726"
         style="fill: none; stroke-opacity: 1; stroke-width: 2.6; stroke: #ffffff" />
      <path
         id="path244"
         d="M 514.343 357.726 C 494.343,357.726 498.343,353.726 498.343,373.726"
         style="fill: none; stroke-opacity: 1; stroke-width: 1.6; stroke: #000000" />
      <polygon
         fill-rule="evenodd"
         id="polygon246"
         points="510.8,359.6 514.8,357.6 510.8,355.6 "
         style="fill: #000000; fill-opacity: 1; stroke-opacity: 1; stroke-width: 2; stroke: #000000" />
      <polygon
         fill-rule="evenodd"
         id="polygon248"
         points="496,370.4 498,374.4 500,370.4 "
         style="fill: #000000; fill-opacity: 1; stroke-opacity: 1; stroke-width: 2; stroke: #000000" />
    </g>
    <text
       id="text254"
       y="236.85"
       x="500"
       style="fill: #000000; fill-opacity: 1; stroke: none;text-anchor:middle;font-family:mononoki;font-style:italic;font-weight:700"
       font-size="12.8">
      <tspan
         id="tspan252"
         y="236.85"
         x="500">R4</tspan>
    </text>
    <text
       id="text258"
       y="388.95"
       x="500"
       style="fill: #000000; fill-opacity: 1; stroke: none;text-anchor:start;font-family:mononoki;font-style:normal;font-weight:normal"
       font-size="10.16">
      <tspan
         id="tspan256"
         y="388.95"
         x="500">I3</tspan>
    </text>
    <text
       id="text262"
       y="357.5"
       x="480"
       style="fill: #000000; fill-opacity: 1; stroke: none;text-anchor:end;font-family:mononoki;font-style:normal;font-weight:normal"
       font-size="10.16">
      <tspan
         id="tspan260"
         y="357.5"
         x="480">I1</tspan>
    </text>
    <text
       id="text266"
       y="357.5"
       x="520"
       style="fill: #000000; fill-opacity: 1; stroke: none;text-anchor:start;font-family:mononoki;font-style:normal;font-weight:normal"
       font-size="10.16">
      <tspan
         id="tspan264"
         y="357.5"
         x="520">I2</tspan>
    </text>
    <g
       id="g288">
      <rect
         id="rect268"
         ry="0"
         rx="0"
         height="40"
         width="40"
         y="340"
         x="320"
         style="fill: #9f9f9f; fill-opacity: 1; stroke-opacity: 1; stroke-width: 2; stroke: #000000" />
      <rect
         id="rect270"
         ry="0"
         rx="0"
         height="40"
         width="40"
         y="340"
         x="320"
         style="fill: none; stroke-opacity: 1; stroke-width: 2; stroke: #000000" />
      <path
         id="path272"
         d="M 342.475 346.475 C 342.475,366.475 346.475,362.475 326.475,362.475"
         style="fill: none; stroke-opacity: 1; stroke-width: 2.6; stroke: #ffffff" />
      <path
         id="path274"
         d="M 342.475 346.475 C 342.475,366.475 346.475,362.475 326.475,362.475"
         style="fill: none; stroke-opacity: 1; stroke-width: 1.6; stroke: #000000" />
      <polygon
         fill-rule="evenodd"
         id="polygon276"
         points="344.4,349.6 342.4,345.6 340.4,349.6 "
         style="fill: #000000; fill-opacity: 1; stroke-opacity: 1; stroke-width: 2; stroke: #000000" />
      <polygon
         fill-rule="evenodd"
         id="polygon278"
         points="329.6,360.4 325.6,362.4 329.6,364.4 "
         style="fill: #000000; fill-opacity: 1; stroke-opacity: 1; stroke-width: 2; stroke: #000000" />
      <path
         id="path280"
         d="M 354.343 357.726 C 334.343,357.726 338.343,353.726 338.343,373.726"
         style="fill: none; stroke-opacity: 1; stroke-width: 2.6; stroke: #ffffff" />
      <path
         id="path282"
         d="M 354.343 357.726 C 334.343,357.726 338.343,353.726 338.343,373.726"
         style="fill: none; stroke-opacity: 1; stroke-width: 1.6; stroke: #000000" />
      <polygon
         fill-rule="evenodd"
         id="polygon284"
         points="350.8,359.6 354.8,357.6 350.8,355.6 "
         style="fill: #000000; fill-opacity: 1; stroke-opacity: 1; stroke-width: 2; stroke: #000000" />
      <polygon
         fill-rule="evenodd"
         id="polygon286"
         points="336,370.4 338,374.4 340,370.4 "
         style="fill: #000000; fill-opacity: 1; stroke-opacity: 1; stroke-width: 2; stroke: #000000" />
    </g>
    <text
       id="text292"
       y="336.85"
       x="340"
       style="fill: #000000; fill-opacity: 1; stroke: none;text-anchor:middle;font-family:mononoki;font-style:italic;font-weight:700"
       font-size="12.8">
      <tspan
         id="tspan290"
         y="336.85"
         x="340">R1</tspan>
    </text>
    <text
       id="text296"
       y="388.95"
       x="340"
       style="fill: #000000; fill-opacity: 1; stroke: none;text-anchor:start;font-family:mononoki;font-style:normal;font-weight:normal"
       font-size="10.16">
      <tspan
         id="tspan294"
         y="388.95"
         x="340">I3</tspan>
    </text>
    <text
       id="text300"
       y="357.5"
       x="320"
       style="fill: #000000; fill-opacity: 1; stroke: none;text-anchor:end;font-family:mononoki;font-style:normal;font-weight:normal"
       font-size="10.16">
      <tspan
         id="tspan298"
         y="357.5"
         x="320">I1</tspan>
    </text>
    <text
       id="text304"
       y="357.5"
       x="360"
       style="fill: #000000; fill-opacity: 1; stroke: none;text-anchor:start;font-family:mononoki;font-style:normal;font-weight:normal"
       font-size="10.16">
      <tspan
         id="tspan302"
         y="357.5"
         x="360">I2</tspan>
    </text>
    <line
       id="line306"
       y2="340"
       x2="500"
       y1="280"
       x1="500"
       style="fill: none; stroke-opacity: 1; stroke-width: 2; stroke: #000000" />
    <text
       id="text310"
       y="288.95"
       x="500"
       style="fill: #000000; fill-opacity: 1; stroke: none;text-anchor:start;font-family:mononoki;font-style:normal;font-weight:normal"
       font-size="10.16">
      <tspan
         id="tspan308"
         y="288.95"
         x="500">I3</tspan>
    </text>
    <text
       id="text314"
       y="337.5"
       x="500"
       style="fill: #000000; fill-opacity: 1; stroke: none;text-anchor:end;font-family:mononoki;font-style:normal;font-weight:normal"
       font-size="10.16">
      <tspan
         id="tspan312"
         y="337.5"
         x="500">I4</tspan>
    </text>
    <text
       id="text318"
       y="336.85"
       x="520"
       style="fill: #000000; fill-opacity: 1; stroke: none;text-anchor:middle;font-family:mononoki;font-style:italic;font-weight:700"
       font-size="12.8">
      <tspan
         id="tspan316"
         y="336.85"
         x="520">R5</tspan>
    </text>
  </g>
</svg>
